<?xml version="1.0" encoding="iso-8859-1"?>
<!-- Uploaded to: SVG Repo, www.svgrepo.com, Generator: SVG Repo Mixer Tools -->
<svg fill="#000000" height="800px" width="800px" version="1.1" id="Layer_1" xmlns="http://www.w3.org/2000/svg" xmlns:xlink="http://www.w3.org/1999/xlink" 
	 viewBox="0 0 512.001 512.001" xml:space="preserve">
<g>
	<g>
		<path d="M369.639,127.723c9.279-20.383,8.268-44.298-3.029-63.866c0-0.001-0.001-0.002-0.002-0.004
			c-11.299-19.559-31.503-32.386-53.787-34.542C299.814,11.084,278.598,0,256.001,0s-43.814,11.084-56.82,29.312
			c-22.284,2.156-42.487,14.982-53.79,34.546c-11.296,19.568-12.307,43.483-3.028,63.866c-9.283,20.381-8.273,44.293,3.028,63.857
			c11.299,19.572,31.502,32.399,53.786,34.548c9.402,13.204,23.115,22.745,38.75,26.936c33.206,38.852,38.275,70.694,15.844,101.635
			c-4.197-22.883-13.884-41.383-28.99-55.167c-31.603-28.836-74.904-25.572-76.732-25.42c-5.729,0.479-10.276,5.026-10.756,10.756
			c-0.06,0.721-0.562,7.328,0.409,17.074c0.644,6.474,6.427,11.198,12.888,10.554c6.474-0.644,11.199-6.414,10.554-12.888
			c-0.06-0.611-0.114-1.207-0.161-1.786c12.295,1.011,32.511,4.963,48.067,19.248c13.068,12.001,20.757,29.366,22.932,51.728
			c-21.605-2.104-38.551-9.352-50.487-21.62c-4.536-4.662-11.994-4.765-16.657-0.229c-4.662,4.537-4.765,11.995-0.229,16.657
			c15.816,16.257,37.454,25.809,64.418,28.546c-8.011,20.126-9.137,42.879-3.15,67.237c6.658,27.09,19.828,46.642,20.385,47.462
			c2.278,3.347,5.973,5.148,9.736,5.148c2.277,0,4.577-0.66,6.605-2.033c5.377-3.645,6.784-10.966,3.15-16.35
			c-0.072-0.107-4.574-6.846-9.297-17.517c0.172,0.001,0.338,0.005,0.512,0.005c11.673,0,27.46-2.244,41.805-11.789
			c17.255-11.483,28.119-30.366,32.29-56.125c0.504-3.117-0.263-6.304-2.13-8.85c-1.867-2.546-4.678-4.235-7.802-4.689
			c-25.828-3.761-47.106,0.933-63.24,13.945c-4.718,3.805-8.623,8.052-11.861,12.443c1.59-15.935,7.86-30.16,18.791-42.507
			c33.462-37.786,34.697-79.503,3.791-124.246c17.707-3.283,33.657-13.368,44.211-28.158c22.286-2.146,42.49-14.975,53.79-34.546
			C377.912,172.016,378.922,148.104,369.639,127.723z M272.827,426.816c8.25-6.592,18.998-9.904,32.075-9.85
			c-3.89,12.476-10.261,21.741-19.025,27.631c-9.85,6.621-21.207,8.019-29.482,7.951
			C258.802,444.656,263.559,434.219,272.827,426.816z M346.207,179.801c-8.216,14.232-23.547,23.078-40.01,23.088
			c-4.202,0.002-8.085,2.243-10.189,5.88c-8.25,14.26-23.581,23.119-40.008,23.119c-2.568,0-5.126-0.221-7.634-0.638
			c-1.161-0.443-2.383-0.687-3.615-0.749c-12.056-3.019-22.461-10.848-28.758-21.733c-2.105-3.637-5.987-5.879-10.189-5.881
			c-16.463-0.009-31.794-8.857-40.011-23.09c-8.217-14.224-8.214-31.925,0.007-46.194c2.096-3.639,2.097-8.118,0.001-11.757
			c-8.219-14.275-8.221-31.983-0.009-46.21c8.217-14.224,23.552-23.071,40.018-23.091c4.199-0.005,8.079-2.245,10.182-5.88
			c8.246-14.254,23.577-23.109,40.008-23.109c16.431,0,31.762,8.855,40.008,23.109c2.103,3.635,5.983,5.876,10.182,5.88
			c16.466,0.02,31.8,8.865,40.016,23.088c8.215,14.23,8.211,31.936-0.007,46.212c-2.094,3.639-2.094,8.118,0.001,11.757
			C354.422,147.874,354.426,165.575,346.207,179.801z"/>
	</g>
</g>
<g>
	<g>
		<path d="M256.001,77.98c-25.293,0-45.869,20.582-45.869,45.881c0,25.293,20.576,45.869,45.869,45.869
			c25.299,0,45.881-20.576,45.881-45.869C301.881,98.562,281.299,77.98,256.001,77.98z M256.001,146.171
			c-12.301,0-22.31-10.009-22.31-22.31c0-12.308,10.009-22.322,22.31-22.322c12.308,0,22.322,10.014,22.322,22.322
			C278.323,136.162,268.309,146.171,256.001,146.171z"/>
	</g>
</g>
<g>
	<g>
		<path d="M167.669,325.993l-0.238-0.569c-2.471-6.017-9.354-8.892-15.371-6.421c-6.017,2.471-8.892,9.353-6.421,15.371l0.328,0.786
			c1.899,4.496,6.263,7.198,10.856,7.198c1.528,0,3.083-0.299,4.579-0.932C167.394,338.897,170.2,331.986,167.669,325.993z"/>
	</g>
</g>
</svg>